<svg width="24" height="24" viewBox="0 0 24 24" fill="none" xmlns="http://www.w3.org/2000/svg">
<path d="M15.5926 1.98478L15.7487 1.75449L15.5031 1.62384C14.4517 1.06446 13.2584 0.75 12 0.75C8.1442 0.75 4.90851 3.69898 4.47112 7.59552L4.16911 10.286C4.09479 10.9482 4.05902 11.265 3.99743 11.5733C3.87097 12.2063 3.66251 12.8192 3.37759 13.396C3.23886 13.6768 3.07471 13.9481 2.73105 14.515L1.76065 16.1159L1.74905 16.1351C1.37369 16.7543 1.07717 17.2435 0.910465 17.6384C0.741508 18.0387 0.675664 18.411 0.863505 18.7547C1.05235 19.1001 1.40092 19.2402 1.82586 19.3045C2.24378 19.3677 2.80836 19.3677 3.52136 19.3676H3.54441H7.83547C7.86347 19.8252 7.96816 20.2754 8.14576 20.6999C8.35564 21.2014 8.66319 21.657 9.05073 22.0406C9.43827 22.4242 9.8982 22.7283 10.4042 22.9358C10.9102 23.1433 11.4525 23.25 12 23.25C12.5475 23.25 13.0898 23.1433 13.5958 22.9358C14.1018 22.7283 14.5617 22.4242 14.9493 22.0406C15.3368 21.657 15.6444 21.2014 15.8542 20.6999C16.0318 20.2754 16.1365 19.8252 16.1645 19.3676H20.4556H20.4786C21.1916 19.3677 21.7562 19.3677 22.1741 19.3045C22.5991 19.2402 22.9477 19.1001 23.1365 18.7547C23.3243 18.411 23.2585 18.0387 23.0895 17.6384C22.9228 17.2435 22.6263 16.7543 22.251 16.1351L22.2393 16.1159L21.2689 14.515C20.9253 13.9481 20.7611 13.6768 20.6224 13.396C20.3375 12.8192 20.129 12.2063 20.0026 11.5733C19.941 11.265 19.9052 10.9482 19.8309 10.286L19.8279 10.2597L19.8042 10.0484L19.5919 10.0379C16.9409 9.9065 14.711 7.71877 14.711 4.88235C14.711 3.79333 15.0391 2.80162 15.5926 1.98478ZM19.2028 7.64911L19.551 7.72884L19.5477 7.70555C19.6453 7.71549 19.7442 7.72059 19.8443 7.72059C21.4241 7.72059 22.7091 6.45227 22.7091 4.88235C22.7091 3.31244 21.4241 2.04412 19.8443 2.04412C18.9015 2.04412 18.0636 2.49592 17.5413 3.194L17.5264 3.1763L17.3617 3.46505C17.1382 3.84835 17.0026 4.28839 16.9823 4.75839C16.9805 4.79949 16.9796 4.84082 16.9796 4.88235C16.9796 5.05095 16.9944 5.21607 17.0228 5.37651C17.1882 6.31034 17.8142 7.08574 18.6585 7.46668C18.8297 7.54389 19.0098 7.60489 19.1968 7.64773L19.2028 7.64911Z" fill="#056ABB" stroke="#1D6BA9" stroke-width="0.5"/>
</svg>
