<svg width="22" height="22" viewBox="0 0 22 22" fill="none" xmlns="http://www.w3.org/2000/svg">
<path d="M14.391 3.11171L14.8591 2.42085L14.1224 2.02887C13.1855 1.53042 12.1214 1.25 11 1.25C7.55913 1.25 4.68585 3.87989 4.29796 7.33549L4.05086 9.5368C3.98906 10.0874 3.96234 10.3198 3.91756 10.544C3.82339 11.0153 3.66821 11.4716 3.45627 11.9006C3.35554 12.1045 3.23567 12.3035 2.94986 12.775L2.1559 14.0848L2.12758 14.1315C1.83677 14.6112 1.57637 15.0407 1.42422 15.4011C1.26556 15.777 1.13414 16.284 1.4097 16.7882C1.68827 17.2978 2.19045 17.4547 2.59416 17.5157C2.97742 17.5737 3.47477 17.5736 4.02599 17.5735L4.08179 17.5735H7.11384C7.16449 17.8316 7.24126 18.0847 7.34336 18.3286C7.54294 18.8056 7.83525 19.2384 8.20324 19.6027C8.57121 19.9669 9.00765 20.2554 9.48743 20.4521C9.9672 20.6488 10.4811 20.75 11 20.75C11.5189 20.75 12.0328 20.6488 12.5126 20.4521C12.9924 20.2554 13.4288 19.9669 13.7968 19.6027C14.1647 19.2384 14.4571 18.8056 14.6566 18.3286C14.7587 18.0847 14.8355 17.8316 14.8862 17.5735H17.9182L17.974 17.5735C18.5252 17.5736 19.0226 17.5737 19.4058 17.5157C19.8095 17.4547 20.3117 17.2978 20.5903 16.7882C20.8659 16.284 20.7344 15.777 20.5758 15.4011C20.4236 15.0407 20.1632 14.6112 19.8724 14.1315L19.8441 14.0848L19.0501 12.775L18.4088 13.1638L19.0501 12.775C18.7643 12.3035 18.6445 12.1045 18.5437 11.9006C18.3318 11.4715 18.1766 11.0153 18.0824 10.544C18.0377 10.3198 18.0109 10.0874 17.9491 9.5368L17.9491 9.53678L17.9467 9.51523L17.8755 8.8814L17.2385 8.84983C15.3511 8.7563 13.7635 7.19763 13.7635 5.17647C13.7635 4.39742 13.9977 3.69213 14.391 3.11171ZM16.777 7.97314L17.8292 8.21407L17.8016 8.01902C19.2107 7.83315 20.3075 6.63729 20.3075 5.17647C20.3075 3.58552 19.0066 2.30882 17.4181 2.30882C16.7127 2.30882 16.0641 2.56055 15.5609 2.97974L15.4355 2.83061L14.9247 3.72609C14.6732 4.15089 14.5287 4.64623 14.5287 5.17647C14.5287 5.26191 14.5325 5.34645 14.5398 5.42993C14.6503 6.68548 15.574 7.70229 16.777 7.97314Z" stroke="white" stroke-opacity="0.9" stroke-width="1.5"/>
</svg>
