<svg width="114" height="115" viewBox="0 0 114 115" fill="none" xmlns="http://www.w3.org/2000/svg">
<path opacity="0.4" d="M56.9631 113.967C88.4228 113.967 113.926 88.4643 113.926 57.0041C113.926 25.5443 88.4228 0.0410156 56.9631 0.0410156C25.5033 0.0410156 0 25.5443 0 57.0041C0 88.4643 25.5033 113.967 56.9631 113.967Z" fill="#80868E"/>
<path d="M56.7646 28.2705C44.9732 28.2705 35.4034 37.8403 35.4034 49.6315C35.4034 61.195 44.4605 70.5939 56.4797 70.9357H56.9924H57.3912H57.5051C69.0116 70.5369 78.0688 61.195 78.1257 49.6315C78.1257 37.8403 68.5559 28.2705 56.7646 28.2705Z" fill="#87898A"/>
<path d="M95.3895 99.0192C85.2501 108.361 71.6929 114.114 56.7685 114.114C41.8442 114.114 28.287 108.361 18.1475 99.0192C19.5146 93.8356 23.2172 89.1076 28.6287 85.462C44.1797 75.0947 69.4713 75.0947 84.9083 85.462C90.3768 89.1076 94.0224 93.8356 95.3895 99.0192Z" fill="#87898A"/>
</svg>
