<svg width="40" height="40" viewBox="0 0 40 40" fill="none" xmlns="http://www.w3.org/2000/svg">
<path fill-rule="evenodd" clip-rule="evenodd" d="M35 20C35 28.2843 28.2843 35 20 35C11.7157 35 5 28.2843 5 20C5 11.7157 11.7157 5 20 5C28.2843 5 35 11.7157 35 20ZM11.9191 28.0809C11.1381 27.2998 11.1381 26.0335 11.9191 25.2525L17.1716 20L11.9191 14.7475C11.1381 13.9665 11.1381 12.7002 11.9191 11.9191C12.7002 11.1381 13.9665 11.1381 14.7475 11.9191L20 17.1716L25.2525 11.9191C26.0335 11.1381 27.2998 11.1381 28.0809 11.9191C28.8619 12.7002 28.8619 13.9665 28.0809 14.7475L22.8284 20L28.0809 25.2525C28.8619 26.0335 28.8619 27.2998 28.0809 28.0809C27.2998 28.8619 26.0335 28.8619 25.2525 28.0809L20 22.8284L14.7475 28.0809C13.9665 28.8619 12.7002 28.8619 11.9191 28.0809Z" fill="white" fill-opacity="0.8"/>
</svg>
