<svg width="40" height="40" viewBox="0 0 40 40" fill="none" xmlns="http://www.w3.org/2000/svg">
<path d="M19.9998 23.3334L18.5856 24.7476L19.9998 26.1618L21.4141 24.7476L19.9998 23.3334ZM21.9998 8.33337C21.9998 7.22881 21.1044 6.33337 19.9998 6.33337C18.8953 6.33337 17.9998 7.22881 17.9998 8.33337L21.9998 8.33337ZM10.2523 16.4143L18.5856 24.7476L21.4141 21.9192L13.0807 13.5858L10.2523 16.4143ZM21.4141 24.7476L29.7474 16.4143L26.919 13.5858L18.5856 21.9192L21.4141 24.7476ZM21.9998 23.3334L21.9998 8.33337L17.9998 8.33337L17.9998 23.3334L21.9998 23.3334Z" fill="#056ABB"/>
<path d="M8.3335 26.6666L8.3335 28.3333C8.3335 30.1742 9.82588 31.6666 11.6668 31.6666L28.3335 31.6666C30.1744 31.6666 31.6668 30.1742 31.6668 28.3333V26.6666" stroke="#056ABB" stroke-width="4"/>
</svg>
