<svg width="85" height="85" viewBox="0 0 85 85" fill="none" xmlns="http://www.w3.org/2000/svg">
<path d="M63.077 15.8313C62.7937 15.8313 62.5104 15.7605 62.2625 15.6188C55.4625 12.1125 49.5833 10.625 42.5354 10.625C35.5229 10.625 28.8645 12.2896 22.8083 15.6188C21.9583 16.0792 20.8958 15.7605 20.4 14.9105C19.9395 14.0605 20.2583 12.9625 21.1083 12.5021C27.6958 8.92504 34.9208 7.08337 42.5354 7.08337C50.0791 7.08337 56.6666 8.74796 63.8916 12.4667C64.777 12.9271 65.0958 13.9896 64.6354 14.8396C64.3166 15.4771 63.7145 15.8313 63.077 15.8313ZM12.3958 34.425C12.0416 34.425 11.6875 34.3188 11.3687 34.1063C10.5541 33.5396 10.377 32.4417 10.9437 31.6271C14.45 26.6688 18.9125 22.773 24.225 20.0459C35.3458 14.3084 49.5833 14.273 60.7395 20.0105C66.052 22.7375 70.5145 26.598 74.0208 31.5209C74.5875 32.3 74.4104 33.4334 73.5958 34C72.7812 34.5667 71.6833 34.3896 71.1166 33.575C67.9291 29.1125 63.8916 25.6063 59.1104 23.1625C48.9458 17.9563 35.9479 17.9563 25.8187 23.198C21.002 25.6771 16.9645 29.2188 13.777 33.6813C13.4937 34.1771 12.9625 34.425 12.3958 34.425ZM34.5312 77.173C34.0708 77.173 33.6104 76.9959 33.2916 76.6417C30.2104 73.5605 28.5458 71.5771 26.1729 67.2917C23.7291 62.9355 22.4541 57.623 22.4541 51.9209C22.4541 41.4021 31.45 32.8313 42.5 32.8313C53.55 32.8313 62.5458 41.4021 62.5458 51.9209C62.5458 52.9125 61.7666 53.6917 60.775 53.6917C59.7833 53.6917 59.0041 52.9125 59.0041 51.9209C59.0041 43.35 51.602 36.373 42.5 36.373C33.3979 36.373 25.9958 43.35 25.9958 51.9209C25.9958 57.0209 27.1291 61.7313 29.2895 65.5563C31.5562 69.6292 33.1145 71.3646 35.8416 74.1271C36.5145 74.8355 36.5145 75.9334 35.8416 76.6417C35.452 76.9959 34.9916 77.173 34.5312 77.173ZM59.925 70.6209C55.7104 70.6209 51.9916 69.5584 48.9458 67.4688C43.6687 63.8917 40.5166 58.0834 40.5166 51.9209C40.5166 50.9292 41.2958 50.15 42.2875 50.15C43.2791 50.15 44.0583 50.9292 44.0583 51.9209C44.0583 56.9146 46.6083 61.625 50.9291 64.5292C53.4437 66.2292 56.3833 67.0438 59.925 67.0438C60.775 67.0438 62.1916 66.9375 63.6083 66.6896C64.5645 66.5125 65.4854 67.15 65.6625 68.1417C65.8395 69.098 65.202 70.0188 64.2104 70.1959C62.1916 70.5855 60.4208 70.6209 59.925 70.6209ZM52.8062 77.9167C52.6645 77.9167 52.4875 77.8813 52.3458 77.8459C46.7145 76.2875 43.0312 74.198 39.1708 70.4084C34.2125 65.4855 31.4854 58.9334 31.4854 51.9209C31.4854 46.1834 36.3729 41.5084 42.3937 41.5084C48.4145 41.5084 53.302 46.1834 53.302 51.9209C53.302 55.7105 56.5958 58.7917 60.6687 58.7917C64.7416 58.7917 68.0354 55.7105 68.0354 51.9209C68.0354 38.5688 56.525 27.7313 42.3583 27.7313C32.3 27.7313 23.0916 33.3271 18.9479 42.0042C17.5666 44.873 16.8583 48.2375 16.8583 51.9209C16.8583 54.6834 17.1062 59.0396 19.2312 64.7063C19.5854 65.6271 19.125 66.6542 18.2041 66.973C17.2833 67.3271 16.2562 66.8313 15.9375 65.9459C14.202 61.3063 13.352 56.7021 13.352 51.9209C13.352 47.6709 14.1666 43.8105 15.7604 40.4459C20.4708 30.5646 30.9187 24.1542 42.3583 24.1542C58.4729 24.1542 71.577 36.5855 71.577 51.8855C71.577 57.623 66.6895 62.298 60.6687 62.298C54.6479 62.298 49.7604 57.623 49.7604 51.8855C49.7604 48.0959 46.4666 45.0146 42.3937 45.0146C38.3208 45.0146 35.027 48.0959 35.027 51.8855C35.027 57.9417 37.3645 63.6084 41.65 67.8584C45.0145 71.1875 48.2375 73.0292 53.2312 74.4105C54.1875 74.6584 54.7187 75.65 54.4708 76.5709C54.2937 77.3855 53.55 77.9167 52.8062 77.9167Z" fill="white"/>
</svg>
