<svg width="24" height="26" viewBox="0 0 24 26" fill="none" xmlns="http://www.w3.org/2000/svg">
<path d="M10.626 0.858449C11.397 0.158186 12.603 0.158186 13.374 0.858449L23.061 9.65682C23.6604 10.2012 24 10.9586 24 11.751V22.4513C24 24.0429 22.6568 25.3333 21 25.3333H17C15.3431 25.3333 14 24.0429 14 22.4513V17.648C14 17.1175 13.5523 16.6874 13 16.6874H11C10.4477 16.6874 10 17.1175 10 17.648V22.4513C10 24.0429 8.65686 25.3333 7 25.3333H3C1.34314 25.3333 0 24.0429 0 22.4513V11.751C0 10.9586 0.3396 10.2012 0.93896 9.65682L10.626 0.858449ZM12 2.25457L2.31298 11.0529C2.1132 11.2344 2 11.4869 2 11.751V22.4513C2 22.9818 2.44772 23.4119 3 23.4119H7C7.55228 23.4119 8 22.9818 8 22.4513V17.648C8 16.0564 9.34314 14.7661 11 14.7661H13C14.6569 14.7661 16 16.0564 16 17.648V22.4513C16 22.9818 16.4478 23.4119 17 23.4119H21C21.5522 23.4119 22 22.9818 22 22.4513V11.751C22 11.4869 21.8868 11.2344 21.687 11.0529L12 2.25457Z" fill="white"/>
</svg>
