<svg width="18" height="16" viewBox="0 0 18 16" fill="none" xmlns="http://www.w3.org/2000/svg">
<path d="M4.65162 2.55823C5.93317 1.7818 7.44442 1.36499 8.99388 1.36499C10.0223 1.36499 11.0397 1.5487 11.9875 1.9047C12.9354 2.26069 13.7937 2.78138 14.5144 3.43492C15.2351 4.08837 15.8039 4.86145 16.1908 5.70858C16.5778 6.55553 16.7761 7.4613 16.7761 8.37463C16.7761 9.74945 16.3267 11.0981 15.4778 12.2501C14.6283 13.4029 13.4155 14.3083 11.9875 14.8446C10.5594 15.3809 8.98563 15.5218 7.46685 15.2479C5.94813 14.974 4.55912 14.2988 3.47333 13.3143C2.38804 12.3303 1.65539 11.0827 1.3592 9.73255C1.06313 8.38297 1.21451 6.98346 1.79691 5.70858C2.3797 4.43285 3.3704 3.33446 4.65162 2.55823ZM5.05372 13.7975C6.22377 14.5064 7.59482 14.8823 8.99388 14.8823C10.8688 14.8823 12.6756 14.2075 14.0149 12.9931C15.3557 11.7773 16.1196 10.1173 16.1196 8.37463C16.1196 7.07598 15.6947 5.81118 14.9055 4.7403C14.1169 3.67017 13.0014 2.84295 11.7052 2.35615C10.4093 1.86941 8.98559 1.74265 7.61251 1.99029C6.23937 2.23795 4.97203 2.8502 3.9729 3.75613C2.97327 4.66251 2.28608 5.82349 2.00704 7.09544C1.72788 8.36797 1.87173 9.68635 2.41768 10.8814C2.96324 12.0757 3.88333 13.0884 5.05372 13.7975Z" fill="white" stroke="white"/>
<path d="M9.32209 5.37084C9.32209 5.4645 9.22234 5.6218 8.99387 5.6218C8.7654 5.6218 8.66565 5.4645 8.66565 5.37084C8.66565 5.27718 8.7654 5.11987 8.99387 5.11987C9.22234 5.11987 9.32209 5.27718 9.32209 5.37084Z" fill="white" stroke="white"/>
<path d="M8.74408 7.46316C8.80273 7.40999 8.89188 7.3728 8.99387 7.3728C9.09586 7.3728 9.18501 7.40999 9.24366 7.46316C9.30067 7.51486 9.32209 7.57389 9.32209 7.62377V11.3786C9.32209 11.4285 9.30067 11.4875 9.24366 11.5392C9.18501 11.5924 9.09586 11.6295 8.99387 11.6295C8.89188 11.6295 8.80273 11.5924 8.74409 11.5392C8.68707 11.4875 8.66565 11.4285 8.66565 11.3786V7.62377C8.66565 7.57389 8.68707 7.51486 8.74408 7.46316Z" fill="white" stroke="white"/>
</svg>
