<svg width="14" height="19" viewBox="0 0 14 19" fill="none" xmlns="http://www.w3.org/2000/svg">
<path d="M10.5718 8.1153V8.28311C10.5718 10.2464 9.09926 12.8474 6.04101 15.9518C2.98275 12.8474 1.51025 10.2548 1.51025 8.28311C1.51025 5.23744 3.51133 3.08113 6.04101 3.08113C6.29775 3.08113 6.55449 3.1063 6.79613 3.14826V1.45342C6.54694 1.41986 6.29775 1.40308 6.04101 1.40308C2.86948 1.40308 0 4.10475 0 8.28311C0 11.0687 2.01619 14.3661 6.04101 18.1836C10.0658 14.3661 12.082 11.0687 12.082 8.28311C12.082 8.22438 12.082 8.17404 12.082 8.1153H10.5718Z" fill="#DB1A1A"/>
<path d="M6.04101 9.79337C6.8751 9.79337 7.55126 9.04208 7.55126 8.11531C7.55126 7.18855 6.8751 6.43726 6.04101 6.43726C5.20692 6.43726 4.53076 7.18855 4.53076 8.11531C4.53076 9.04208 5.20692 9.79337 6.04101 9.79337Z" fill="#DB1A1A" stroke="#DB1A1A"/>
<path d="M14.0001 1.3025L12.9278 0.111084L11.327 1.89821L9.72609 0.111084L8.65381 1.3025L10.2622 3.08124L8.65381 4.85998L9.72609 6.05141L11.327 4.26427L12.9278 6.05141L14.0001 4.85998L12.3917 3.08124L14.0001 1.3025Z" fill="#DB1A1A"/>
</svg>
