<svg width="17" height="17" viewBox="0 0 17 17" fill="none" xmlns="http://www.w3.org/2000/svg">
<path d="M11.9523 6.89754H11.7523V7.09754V7.24591C11.7523 8.05722 11.3946 9.02643 10.6285 10.1449C9.88538 11.2299 8.76843 12.4401 7.25848 13.7614C5.74844 12.4401 4.63151 11.2317 3.88838 10.1476C3.12243 9.03021 2.76462 8.06099 2.76462 7.24591C2.76462 4.67071 4.74072 2.8463 7.25848 2.8463C7.51358 2.8463 7.76971 2.86767 8.01147 2.90349L8.24079 2.93747V2.70565V1.20707V1.02874L8.06363 1.00838C7.79782 0.977825 7.53203 0.962558 7.25848 0.962558C3.87882 0.962558 0.8 3.42512 0.8 7.24591C0.8 8.53431 1.34588 9.91934 2.40293 11.3971C3.46061 12.8758 5.04003 14.4614 7.13264 16.1554L7.25848 16.2573L7.38432 16.1554C9.47693 14.4614 11.0563 12.8758 12.114 11.3971C13.1711 9.91934 13.717 8.53431 13.717 7.24591V7.24561V7.2453V7.245V7.24469V7.24439V7.24409V7.24378V7.24348V7.24318V7.24288V7.24257V7.24227V7.24197V7.24167V7.24136V7.24106V7.24076V7.24046V7.24016V7.23986V7.23956V7.23926V7.23895V7.23865V7.23835V7.23805V7.23775V7.23745V7.23715V7.23685V7.23656V7.23626V7.23596V7.23566V7.23536V7.23506V7.23476V7.23446V7.23417V7.23387V7.23357V7.23327V7.23297V7.23268V7.23238V7.23208V7.23178V7.23149V7.23119V7.23089V7.2306V7.2303V7.23V7.22971V7.22941V7.22912V7.22882V7.22853V7.22823V7.22793V7.22764V7.22734V7.22705V7.22675V7.22646V7.22617V7.22587V7.22558V7.22528V7.22499V7.22469V7.2244V7.22411V7.22381V7.22352V7.22323V7.22293V7.22264V7.22235V7.22205V7.22176V7.22147V7.22118V7.22088V7.22059V7.2203V7.22001V7.21972V7.21942V7.21913V7.21884V7.21855V7.21826V7.21797V7.21767V7.21738V7.21709V7.2168V7.21651V7.21622V7.21593V7.21564V7.21535V7.21506V7.21477V7.21448V7.21419V7.2139V7.21361V7.21332V7.21303V7.21274V7.21245V7.21216V7.21187V7.21158V7.21129V7.211V7.21072V7.21043V7.21014V7.20985V7.20956V7.20927V7.20898V7.2087V7.20841V7.20812V7.20783V7.20754V7.20726V7.20697V7.20668V7.20639V7.20611V7.20582V7.20553V7.20525V7.20496V7.20467V7.20438V7.2041V7.20381V7.20352V7.20324V7.20295V7.20266V7.20238V7.20209V7.2018V7.20152V7.20123V7.20095V7.20066V7.20037V7.20009V7.1998V7.19952V7.19923V7.19895V7.19866V7.19837V7.19809V7.1978V7.19752V7.19723V7.19695V7.19666V7.19638V7.19609V7.19581V7.19552V7.19524V7.19495V7.19467V7.19438V7.1941V7.19381V7.19353V7.19324V7.19296V7.19268V7.19239V7.19211V7.19182V7.19154V7.19125V7.19097V7.19069V7.1904V7.19012V7.18983V7.18955V7.18927V7.18898V7.1887V7.18842V7.18813V7.18785V7.18756V7.18728V7.187V7.18671V7.18643V7.18615V7.18586V7.18558V7.1853V7.18501V7.18473V7.18445V7.18416V7.18388V7.1836V7.18331V7.18303V7.18275V7.18247V7.18218V7.1819V7.18162V7.18133V7.18105V7.18077V7.18048V7.1802V7.17992V7.17964V7.17935V7.17907V7.17879V7.17851V7.17822V7.17794V7.17766V7.17737V7.17709V7.17681V7.17653V7.17624V7.17596V7.17568V7.1754V7.17511V7.17483V7.17455V7.17427V7.17398V7.1737V7.17342V7.17314V7.17285V7.17257V7.17229V7.17201V7.17172V7.17144V7.17116V7.17088V7.17059V7.17031V7.17003V7.16974V7.16946V7.16918V7.1689V7.16861V7.16833V7.16805V7.16777V7.16748V7.1672V7.16692V7.16664V7.16635V7.16607V7.16579V7.16551V7.16522V7.16494V7.16466V7.16437V7.16409V7.16381V7.16353V7.16324V7.16296V7.16268V7.16239V7.16211V7.16183V7.16155V7.16126V7.16098V7.1607V7.16041V7.16013V7.15985V7.15956V7.15928V7.159V7.15871V7.15843V7.15815V7.15786V7.15758V7.1573V7.15701V7.15673V7.15645V7.15616V7.15588V7.1556V7.15531V7.15503V7.15475V7.15446V7.15418V7.15389V7.15361V7.15333V7.15304V7.15276V7.15247V7.15219V7.15191V7.15162V7.15134V7.15105V7.15077V7.15049V7.1502V7.14992V7.14963V7.14935V7.14906V7.14878V7.14849V7.14821V7.14792V7.14764V7.14735V7.14707V7.14678V7.1465V7.14621V7.14593V7.14564V7.14536V7.14507V7.14479V7.1445V7.14421V7.14393V7.14364V7.14336V7.14307V7.14279V7.1425V7.14221V7.14193V7.14164V7.14135V7.14107V7.14078V7.1405V7.14021V7.13992V7.13964V7.13935V7.13906V7.13877V7.13849V7.1382V7.13791V7.13763V7.13734V7.13705V7.13676V7.13648V7.13619V7.1359V7.13561V7.13532V7.13504V7.13475V7.13446V7.13417V7.13388V7.13359V7.13331V7.13302V7.13273V7.13244V7.13215V7.13186V7.13157V7.13128V7.13099V7.13071V7.13042V7.13013V7.12984V7.12955V7.12926V7.12897V7.12868V7.12839V7.1281V7.12781V7.12752V7.12723V7.12693V7.12664V7.12635V7.12606V7.12577V7.12548V7.12519V7.1249V7.12461V7.12431V7.12402V7.12373V7.12344V7.12315V7.12285V7.12256V7.12227V7.12198V7.12168V7.12139V7.1211V7.12081V7.12051V7.12022V7.11993V7.11963V7.11934V7.11905V7.11875V7.11846V7.11816V7.11787V7.11757V7.11728V7.11699V7.11669V7.1164V7.1161V7.11581V7.11551V7.11522V7.11492V7.11462V7.11433V7.11403V7.11374V7.11344V7.11314V7.11285V7.11255V7.11225V7.11196V7.11166V7.11136V7.11107V7.11077V7.11047V7.11017V7.10988V7.10958V7.10928V7.10898V7.10868V7.10839V7.10809V7.10779V7.10749V7.10719V7.10689V7.10659V7.10629V7.10599V7.10569V7.10539V7.10509V7.10479V7.10449V7.10419V7.10389V7.10359V7.10329V7.10299V7.10268V7.10238V7.10208V7.10178V7.10148V7.10117V7.10087V7.10057V7.10027V7.09996V7.09966V7.09936V7.09905V7.09875V7.09845V7.09814V7.09784V7.09754V6.89754H13.517H11.9523ZM9.43971 2.70301L9.56905 2.85556L9.4397 2.70301C9.21806 2.89094 9.21805 3.21145 9.43971 3.39937L11.5608 5.19763C11.7629 5.36895 12.0789 5.36894 12.281 5.19765L12.281 5.19764L16.0338 2.01609L16.0338 2.01608C16.2554 1.82816 16.2554 1.50765 16.0338 1.31973L15.5723 0.928475L15.5723 0.928473C15.3702 0.757176 15.0542 0.757176 14.8521 0.928473L11.9209 3.41349L10.6214 2.31176C10.6214 2.31176 10.6214 2.31176 10.6214 2.31175C10.4193 2.14044 10.1032 2.14045 9.90119 2.31176L9.43971 2.70301ZM7.25846 8.78128C8.2229 8.78128 9.02308 8.03731 9.02308 7.09753C9.02308 6.15776 8.2229 5.41379 7.25846 5.41379C6.29403 5.41379 5.49385 6.15776 5.49385 7.09753C5.49385 8.03731 6.29403 8.78128 7.25846 8.78128Z" fill="#50C878" stroke="#50C878" stroke-width="0.4"/>
</svg>
