<svg width="16" height="21" viewBox="0 0 16 21" fill="none" xmlns="http://www.w3.org/2000/svg">
<path d="M11.5 10.7801C11.5 12.6203 10.0993 14.7901 7.04101 17.6998C3.98275 14.7901 2.51025 12.3601 2.51025 10.512C2.51025 7.65737 4.51133 5.6363 7.04101 5.6363C7.29775 5.6363 7.55449 5.65989 7.79613 5.69921V4.11066C7.54694 4.0792 7.29775 4.06348 7.04101 4.06348C3.86948 4.06348 1 6.59572 1 10.512C1 13.1229 3.01619 16.2135 7.04101 19.7917C11.0658 16.2135 13.0787 13.0661 13.0787 10.4552C13.0787 10.4552 13.0787 10.7506 13.0787 10.6955L11.5 10.7801Z" fill="#A7A7A7" stroke="#A7A7A7" stroke-width="0.75"/>
<path d="M7.04101 11.9276C7.8751 11.9276 8.55126 11.2234 8.55126 10.3548C8.55126 9.48616 7.8751 8.78198 7.04101 8.78198C6.20692 8.78198 5.53076 9.48616 5.53076 10.3548C5.53076 11.2234 6.20692 11.9276 7.04101 11.9276Z" fill="#A7A7A7" stroke="#A7A7A7"/>
<path d="M9.308 3.99233C9.275 2.67233 10.199 1.61633 11.937 1.61633C13.466 1.61633 14.533 2.44133 14.533 3.97033C14.533 5.38933 13.51 6.15933 12.069 6.17033L12.014 6.99533H10.364L10.309 4.94933H10.969C12.003 4.94933 12.718 4.76233 12.707 3.95933C12.707 3.46433 12.399 3.15633 11.915 3.15633C11.376 3.15633 11.079 3.48633 11.079 3.99233H9.308ZM12.322 8.84333C12.322 9.40433 11.871 9.85533 11.211 9.85533C10.54 9.85533 10.089 9.40433 10.089 8.84333C10.089 8.26033 10.54 7.80933 11.211 7.80933C11.871 7.80933 12.322 8.26033 12.322 8.84333Z" fill="#A7A7A7"/>
</svg>
