<svg width="25" height="26" viewBox="0 0 25 26" fill="none" xmlns="http://www.w3.org/2000/svg">
<path d="M20.6818 2.16675H9.65151V5.77786H11.0303V3.61119H20.6818C21.0955 3.61119 21.3712 3.90008 21.3712 4.33341V12.2779C21.3712 12.7112 21.0955 13.0001 20.6818 13.0001H11.7197V18.0556H8.06591L5.51515 20.1501V18.0556H3.44697C3.03333 18.0556 2.75757 17.7667 2.75757 17.3334V9.38897C2.75757 8.95564 3.03333 8.66675 3.44697 8.66675H12.4091V7.2223H3.44697C2.275 7.2223 1.37878 8.16119 1.37878 9.38897V17.3334C1.37878 18.5612 2.275 19.5001 3.44697 19.5001H4.13636V23.1834L8.47954 19.5001H13.0985V14.4445H20.6818C21.8538 14.4445 22.75 13.5056 22.75 12.2779V4.33341C22.75 3.10564 21.8538 2.16675 20.6818 2.16675Z" fill="#056ABB"/>
<path d="M4.27423 16.5389H5.92878L6.34241 15.3833H8.47954L8.89317 16.5389H10.5477L8.20378 10.1111H6.54923L4.27423 16.5389ZM7.3765 11.9166L8.0659 14.1555H6.68711L7.3765 11.9166Z" fill="#056ABB"/>
<path d="M13.7879 12.2777C14.5462 12.2777 15.5803 12.061 16.5455 11.5555C17.5106 12.061 18.6137 12.2777 19.3031 12.2777V10.8333C19.3031 10.8333 18.6137 10.8333 17.8553 10.5444C18.6826 9.6777 19.3031 8.3777 19.3031 6.49992V5.7777H17.2349V4.33325H15.8561V5.7777H13.7879V7.22214H17.8553C17.7174 8.52214 17.1659 9.31659 16.5455 9.82214C16.1318 9.46103 15.7182 8.95547 15.4424 8.30547H13.9947C14.2705 9.24436 14.6841 9.96659 15.2356 10.5444C14.5462 10.8333 13.9258 10.8333 13.7879 10.8333V12.2777Z" fill="#056ABB"/>
</svg>
