<svg width="61" height="84" viewBox="0 0 61 84" fill="none" xmlns="http://www.w3.org/2000/svg">
<path d="M50.8119 0V69.0882L18.2373 35.6891V49.9756L49.03 81.5108L49.0769 81.5225C50.2961 82.6557 51.9295 83.3474 53.7114 83.3474H53.9537C57.7051 83.2771 60.7531 80.2213 60.7531 76.4699V18.4131C60.7453 6.55322 50.808 0.00781484 50.808 0.00781484L50.8119 0ZM43.9031 34.0556L12.5633 1.84053L12.5125 1.8288C11.3011 0.707293 9.67157 0.00781484 7.88575 0.00781484H7.62002V0.0273538C3.89598 0.078154 0 3.70841 0 7.49107V65.5322C0 77.3999 9.80834 84 9.80834 84V14.9274L43.9109 48.3188V34.0556H43.8991H43.9031Z" fill="white"/>
</svg>
