<svg width="22" height="22" viewBox="0 0 22 22" fill="none" xmlns="http://www.w3.org/2000/svg">
<path d="M21.0707 20.9907C21.7983 20.8433 22.2316 20.1031 21.87 19.4718C21.073 18.0802 19.8173 16.8573 18.2111 15.9253C16.1423 14.7251 13.6076 14.0745 11 14.0745C8.39241 14.0745 5.85769 14.7251 3.78895 15.9253C2.18266 16.8573 0.92701 18.0802 0.129967 19.4718C-0.231579 20.1031 0.201747 20.8433 0.929342 20.9907C7.57175 22.3364 14.4282 22.3364 21.0707 20.9907Z" fill="#056ABB"/>
<path d="M17.5808 6.3975C17.5808 9.93074 14.6345 12.795 11 12.795C7.36556 12.795 4.41923 9.93074 4.41923 6.3975C4.41923 2.86426 7.36556 0 11 0C14.6345 0 17.5808 2.86426 17.5808 6.3975Z" fill="#0064DA" fill-opacity="0.39"/>
</svg>
