<svg width="25" height="26" viewBox="0 0 25 26" fill="none" xmlns="http://www.w3.org/2000/svg">
<path d="M24 13.0673C24 19.4287 18.8501 24.5834 12.5 24.5834C6.14994 24.5834 1 19.4287 1 13.0673C1 6.70598 6.14994 1.55127 12.5 1.55127C18.8501 1.55127 24 6.70598 24 13.0673Z" stroke="black" stroke-width="2"/>
<path d="M12.3741 11.7474C13.1087 11.7474 13.8268 11.5498 14.4376 11.1798C15.0484 10.8097 15.5245 10.2837 15.8056 9.66834C16.0868 9.05296 16.1603 8.3758 16.017 7.72251C15.8737 7.06922 15.5199 6.46913 15.0005 5.99813C14.481 5.52713 13.8192 5.20638 13.0987 5.07643C12.3782 4.94648 11.6314 5.01318 10.9527 5.26808C10.274 5.52298 9.69389 5.95464 9.28576 6.50848C8.87763 7.06231 8.65979 7.71344 8.65979 8.37954C8.65979 9.27274 9.05112 10.1294 9.74768 10.7609C10.4442 11.3925 11.389 11.7474 12.3741 11.7474Z" fill="black"/>
<path d="M17.9455 19.1089C18.1917 19.1089 18.4279 19.0202 18.6021 18.8623C18.7762 18.7044 18.874 18.4903 18.874 18.267C18.874 16.7039 18.1892 15.2048 16.9702 14.0995C15.7512 12.9942 14.0979 12.3733 12.374 12.3733C10.6501 12.3733 8.99682 12.9942 7.77783 14.0995C6.55884 15.2048 5.87402 16.7039 5.87402 18.267C5.87402 18.4903 5.97185 18.7044 6.146 18.8623C6.32014 19.0202 6.55632 19.1089 6.80259 19.1089H17.9455Z" fill="black"/>
</svg>
