<svg width="18" height="20" viewBox="0 0 18 20" fill="none" xmlns="http://www.w3.org/2000/svg">
<path d="M1 16.5019C1 17.9953 2.04 19.1372 3.4 19.1372H14.6C15.96 19.1372 17 17.9953 17 16.5019V9.47449H1V16.5019ZM14.6 3.32547H13V2.44703C13 1.91998 12.68 1.5686 12.2 1.5686C11.72 1.5686 11.4 1.91998 11.4 2.44703V3.32547H6.6V2.44703C6.6 1.91998 6.28 1.5686 5.8 1.5686C5.32 1.5686 5 1.91998 5 2.44703V3.32547H3.4C2.04 3.32547 1 4.46743 1 5.96076V7.71762H17V5.96076C17 4.46743 15.96 3.32547 14.6 3.32547Z" stroke="white" stroke-width="1.2"/>
</svg>
