<svg width="62" height="63" viewBox="0 0 62 63" fill="none" xmlns="http://www.w3.org/2000/svg">
<path d="M61.95 31.8636C61.95 48.9789 48.0932 62.8534 31 62.8534C13.9068 62.8534 0.05 48.9789 0.05 31.8636C0.05 14.7483 13.9068 0.87373 31 0.87373C48.0932 0.87373 61.95 14.7483 61.95 31.8636Z" fill="#F24E1E" stroke="black" stroke-width="0.1"/>
<path d="M21.9014 35.2477C21.9014 37.8437 19.8774 39.9997 16.2694 39.9997C12.9474 39.9997 10.3514 38.3497 10.2414 35.2257H14.2454C14.3554 36.4137 15.1034 36.9857 16.1594 36.9857C17.2594 36.9857 17.9634 36.4357 17.9634 35.5337C17.9634 32.6737 10.2414 34.2137 10.2854 28.7357C10.2854 25.8097 12.6834 24.1817 15.9174 24.1817C19.2834 24.1817 21.5494 25.8537 21.7034 28.8017H17.6334C17.5674 27.8117 16.8634 27.2177 15.8514 27.1957C14.9494 27.1737 14.2674 27.6357 14.2674 28.6037C14.2674 31.2877 21.9014 30.0777 21.9014 35.2477ZM39.4185 32.0797C39.4185 36.7217 35.8985 39.9997 31.5205 39.9997C27.1425 39.9997 23.5785 36.7217 23.5785 32.0797C23.5785 27.4377 27.1425 24.1817 31.5205 24.1817C35.9205 24.1817 39.4185 27.4377 39.4185 32.0797ZM27.4285 32.0797C27.4285 34.7857 29.0125 36.5677 31.5205 36.5677C33.9845 36.5677 35.5905 34.7857 35.5905 32.0797C35.5905 29.3297 33.9845 27.5917 31.5205 27.5917C29.0125 27.5917 27.4285 29.3297 27.4285 32.0797ZM52.7315 35.2477C52.7315 37.8437 50.7075 39.9997 47.0995 39.9997C43.7775 39.9997 41.1815 38.3497 41.0715 35.2257H45.0755C45.1855 36.4137 45.9335 36.9857 46.9895 36.9857C48.0895 36.9857 48.7935 36.4357 48.7935 35.5337C48.7935 32.6737 41.0715 34.2137 41.1155 28.7357C41.1155 25.8097 43.5135 24.1817 46.7475 24.1817C50.1135 24.1817 52.3795 25.8537 52.5335 28.8017H48.4635C48.3975 27.8117 47.6935 27.2177 46.6815 27.1957C45.7795 27.1737 45.0975 27.6357 45.0975 28.6037C45.0975 31.2877 52.7315 30.0777 52.7315 35.2477Z" fill="white"/>
</svg>
