<svg width="84" height="84" viewBox="0 0 84 84" fill="none" xmlns="http://www.w3.org/2000/svg">
<g filter="url(#filter0_d_284_355)">
<circle cx="39" cy="39" r="37" fill="#50C878"/>
</g>
<path d="M17.2266 49.0469V59H15.1826V49.0469H17.2266ZM20.2891 49.0469V50.6533H12.168V49.0469H20.2891ZM24.2881 57.332V54.0371C24.2881 53.8001 24.2493 53.5973 24.1719 53.4287C24.0944 53.2555 23.9736 53.1211 23.8096 53.0254C23.6501 52.9297 23.4427 52.8818 23.1875 52.8818C22.9688 52.8818 22.7796 52.9206 22.6201 52.998C22.4606 53.071 22.3376 53.1781 22.251 53.3193C22.1644 53.4561 22.1211 53.6178 22.1211 53.8047H20.1523C20.1523 53.4902 20.2253 53.1917 20.3711 52.9092C20.5169 52.6266 20.7288 52.3783 21.0068 52.1641C21.2848 51.9453 21.6152 51.7744 21.998 51.6514C22.3854 51.5283 22.8184 51.4668 23.2969 51.4668C23.8711 51.4668 24.3815 51.5625 24.8281 51.7539C25.2747 51.9453 25.6257 52.2324 25.8809 52.6152C26.1406 52.998 26.2705 53.4766 26.2705 54.0508V57.2158C26.2705 57.6214 26.2956 57.9541 26.3457 58.2139C26.3958 58.4691 26.4688 58.6924 26.5645 58.8838V59H24.5752C24.4795 58.7995 24.4066 58.5488 24.3564 58.248C24.3109 57.9427 24.2881 57.6374 24.2881 57.332ZM24.5479 54.4951L24.5615 55.6094H23.4609C23.2012 55.6094 22.9756 55.639 22.7842 55.6982C22.5928 55.7575 22.4355 55.8418 22.3125 55.9512C22.1895 56.056 22.0983 56.179 22.0391 56.3203C21.9844 56.4616 21.957 56.6165 21.957 56.7852C21.957 56.9538 21.9958 57.1064 22.0732 57.2432C22.1507 57.3753 22.2624 57.4801 22.4082 57.5576C22.554 57.6305 22.7249 57.667 22.9209 57.667C23.2171 57.667 23.4746 57.6077 23.6934 57.4893C23.9121 57.3708 24.0807 57.2249 24.1992 57.0518C24.3223 56.8786 24.3861 56.7145 24.3906 56.5596L24.9102 57.3936C24.8372 57.5804 24.737 57.7741 24.6094 57.9746C24.4863 58.1751 24.3291 58.3643 24.1377 58.542C23.9463 58.7152 23.7161 58.8587 23.4473 58.9727C23.1784 59.082 22.8594 59.1367 22.4902 59.1367C22.0208 59.1367 21.5947 59.0433 21.2119 58.8564C20.8337 58.665 20.5329 58.403 20.3096 58.0703C20.0908 57.7331 19.9814 57.3503 19.9814 56.9219C19.9814 56.5345 20.0544 56.1904 20.2002 55.8896C20.346 55.5889 20.5602 55.3359 20.8428 55.1309C21.1299 54.9212 21.4876 54.764 21.916 54.6592C22.3444 54.5498 22.8411 54.4951 23.4062 54.4951H24.5479ZM29.7568 53.0254V61.8438H27.7881V51.6035H29.6133L29.7568 53.0254ZM34.4395 55.2197V55.3633C34.4395 55.901 34.3757 56.4001 34.248 56.8604C34.125 57.3206 33.9427 57.7217 33.7012 58.0635C33.4596 58.4007 33.1589 58.665 32.7988 58.8564C32.4434 59.0433 32.0332 59.1367 31.5684 59.1367C31.1172 59.1367 30.7253 59.0456 30.3926 58.8633C30.0599 58.681 29.7796 58.4258 29.5518 58.0977C29.3285 57.765 29.1484 57.3799 29.0117 56.9424C28.875 56.5049 28.7702 56.0355 28.6973 55.5342V55.1582C28.7702 54.6204 28.875 54.1283 29.0117 53.6816C29.1484 53.2305 29.3285 52.8408 29.5518 52.5127C29.7796 52.18 30.0576 51.9225 30.3857 51.7402C30.7184 51.5579 31.1081 51.4668 31.5547 51.4668C32.0241 51.4668 32.4365 51.5557 32.792 51.7334C33.152 51.9111 33.4528 52.1663 33.6943 52.499C33.9404 52.8317 34.125 53.2282 34.248 53.6885C34.3757 54.1488 34.4395 54.6592 34.4395 55.2197ZM32.4639 55.3633V55.2197C32.4639 54.9053 32.4365 54.6159 32.3818 54.3516C32.3317 54.0827 32.2497 53.848 32.1357 53.6475C32.0264 53.4469 31.8805 53.292 31.6982 53.1826C31.5205 53.0687 31.304 53.0117 31.0488 53.0117C30.7799 53.0117 30.5498 53.055 30.3584 53.1416C30.1715 53.2282 30.0189 53.3535 29.9004 53.5176C29.7819 53.6816 29.693 53.8776 29.6338 54.1055C29.5745 54.3333 29.5381 54.5908 29.5244 54.8779V55.8281C29.5472 56.1654 29.611 56.4684 29.7158 56.7373C29.8206 57.0016 29.9824 57.2113 30.2012 57.3662C30.4199 57.5212 30.707 57.5986 31.0625 57.5986C31.3223 57.5986 31.541 57.5417 31.7188 57.4277C31.8965 57.3092 32.04 57.1475 32.1494 56.9424C32.2633 56.7373 32.3431 56.5003 32.3887 56.2314C32.4388 55.9626 32.4639 55.6732 32.4639 55.3633ZM47.373 49.0469V59H45.3223L41.3232 52.3281V59H39.2725V49.0469H41.3232L45.3291 55.7256V49.0469H47.373ZM51.208 49.0469V59H49.1572V49.0469H51.208ZM55.1729 53.2988V54.8984H50.6475V53.2988H55.1729ZM55.6514 49.0469V50.6533H50.6475V49.0469H55.6514ZM62.6104 55.6982H64.6543C64.6133 56.3682 64.4287 56.9629 64.1006 57.4824C63.777 58.002 63.3236 58.4076 62.7402 58.6992C62.1615 58.9909 61.4642 59.1367 60.6484 59.1367C60.0104 59.1367 59.4385 59.0273 58.9326 58.8086C58.4268 58.5853 57.9938 58.2663 57.6338 57.8516C57.2783 57.4368 57.0072 56.9355 56.8203 56.3477C56.6335 55.7598 56.54 55.1012 56.54 54.3721V53.6816C56.54 52.9525 56.6357 52.2939 56.8271 51.7061C57.0231 51.1136 57.3011 50.61 57.6611 50.1953C58.0257 49.7806 58.4609 49.4616 58.9668 49.2383C59.4727 49.015 60.0378 48.9033 60.6621 48.9033C61.4915 48.9033 62.1911 49.0537 62.7607 49.3545C63.335 49.6553 63.7793 50.07 64.0938 50.5986C64.4128 51.1273 64.6042 51.7288 64.668 52.4033H62.6172C62.5944 52.0023 62.5146 51.6628 62.3779 51.3848C62.2412 51.1022 62.0339 50.8903 61.7559 50.749C61.4824 50.6032 61.1178 50.5303 60.6621 50.5303C60.3203 50.5303 60.0218 50.5941 59.7666 50.7217C59.5114 50.8493 59.2972 51.043 59.124 51.3027C58.9508 51.5625 58.821 51.8906 58.7344 52.2871C58.6523 52.679 58.6113 53.1393 58.6113 53.668V54.3721C58.6113 54.887 58.6501 55.3405 58.7275 55.7324C58.805 56.1198 58.9235 56.4479 59.083 56.7168C59.2471 56.9811 59.4567 57.1816 59.7119 57.3184C59.9717 57.4505 60.2839 57.5166 60.6484 57.5166C61.0768 57.5166 61.43 57.4482 61.708 57.3115C61.986 57.1748 62.1979 56.972 62.3438 56.7031C62.4941 56.4342 62.583 56.0993 62.6104 55.6982Z" fill="white"/>
<path d="M45.6277 16V38.407L35.0629 27.5748V32.2083L45.0497 42.4359L45.065 42.4397C45.4604 42.8073 45.9901 43.0316 46.568 43.0316H46.6466C47.8633 43.0088 48.8518 42.0177 48.8518 40.801V21.9718C48.8493 18.1254 45.6264 16.0025 45.6264 16.0025L45.6277 16ZM43.387 27.0451L33.2227 16.5969L33.2062 16.5931C32.8133 16.2294 32.2849 16.0025 31.7057 16.0025H31.6195V16.0089C30.4117 16.0253 29.1481 17.2027 29.1481 18.4295V37.2537C29.1481 41.1027 32.3292 43.2432 32.3292 43.2432V20.8413L43.3895 31.6709V27.0451H43.3857H43.387Z" fill="white"/>
<defs>
<filter id="filter0_d_284_355" x="0" y="0" width="84" height="84" filterUnits="userSpaceOnUse" color-interpolation-filters="sRGB">
<feFlood flood-opacity="0" result="BackgroundImageFix"/>
<feColorMatrix in="SourceAlpha" type="matrix" values="0 0 0 0 0 0 0 0 0 0 0 0 0 0 0 0 0 0 127 0" result="hardAlpha"/>
<feOffset dx="3" dy="3"/>
<feGaussianBlur stdDeviation="2.5"/>
<feComposite in2="hardAlpha" operator="out"/>
<feColorMatrix type="matrix" values="0 0 0 0 0 0 0 0 0 0 0 0 0 0 0 0 0 0 0.15 0"/>
<feBlend mode="normal" in2="BackgroundImageFix" result="effect1_dropShadow_284_355"/>
<feBlend mode="normal" in="SourceGraphic" in2="effect1_dropShadow_284_355" result="shape"/>
</filter>
</defs>
</svg>
