<svg width="148" height="148" viewBox="0 0 148 148" fill="none" xmlns="http://www.w3.org/2000/svg">
<path fill-rule="evenodd" clip-rule="evenodd" d="M74 148C114.869 148 148 114.869 148 74C148 33.1309 114.869 0 74 0C33.1309 0 0 33.1309 0 74C0 114.869 33.1309 148 74 148ZM113.803 55.095C116.985 51.2765 116.469 45.6014 112.651 42.4193C108.832 39.2373 103.157 39.7532 99.9749 43.5717L65.173 85.334L47.4751 67.636C43.9604 64.1213 38.2619 64.1213 34.7472 67.636C31.2325 71.1508 31.2325 76.8492 34.7472 80.364L57.8652 103.482L57.9231 103.54C58.1736 103.794 58.8928 104.521 59.6706 105.109C60.7281 105.909 62.9813 107.319 66.1637 107.175C69.3462 107.031 71.4624 105.422 72.4432 104.53C73.1645 103.873 73.8149 103.084 74.0415 102.809L74.0938 102.746L113.803 55.095ZM59.9731 91.57C59.9722 91.5711 59.9745 91.5686 59.9801 91.5622L59.9847 91.557C59.9779 91.5645 59.974 91.5689 59.9731 91.57ZM70.9034 91.0616C70.9185 91.0756 70.9207 91.0781 70.9085 91.0665L70.9034 91.0616Z" fill="#50C878"/>
</svg>
