<?xml version="1.0" standalone="no"?>
<!DOCTYPE svg PUBLIC "-//W3C//DTD SVG 20010904//EN"
 "http://www.w3.org/TR/2001/REC-SVG-20010904/DTD/svg10.dtd">
<svg version="1.0" xmlns="http://www.w3.org/2000/svg"
 width="2200.000000pt" height="1700.000000pt" viewBox="0 0 2200.000000 1700.000000"
 preserveAspectRatio="xMidYMid meet">

<g transform="translate(0.000000,1700.000000) scale(0.100000,-0.100000)"
fill="#000000" stroke="none">
<path d="M2711 11164 c-169 -29 -362 -110 -511 -215 -113 -79 -255 -227 -338
-352 -68 -102 -77 -121 -73 -157 12 -111 265 -690 342 -783 l31 -38 43 73 c92
156 225 293 391 406 346 235 750 286 1060 135 52 -25 74 -42 74 -54 0 -28 -47
-146 -86 -219 -151 -277 -457 -508 -781 -591 -144 -36 -344 -35 -476 3 -20 6
-39 9 -42 6 -17 -16 56 -243 138 -433 58 -134 176 -368 200 -398 31 -40 105
-58 260 -64 149 -7 239 5 382 49 96 29 105 30 240 25 225 -8 389 -52 564 -151
l101 -57 0 -84 c0 -223 -106 -465 -258 -591 -77 -64 -238 -145 -332 -168 -359
-87 -818 10 -1214 256 -166 103 -390 283 -565 452 -103 101 -321 347 -396 447
-11 14 -61 80 -110 145 -105 138 -242 340 -407 597 -599 936 -716 1112 -743
1112 -33 0 -22 -43 49 -187 90 -185 144 -277 330 -558 170 -256 191 -289 432
-670 338 -535 646 -969 934 -1315 144 -173 440 -474 585 -594 335 -277 744
-472 1095 -521 96 -14 309 -14 397 0 89 14 201 52 288 98 85 44 223 178 274
265 48 81 97 234 112 349 l13 96 148 -153 c82 -84 185 -184 230 -222 44 -37
199 -194 342 -349 144 -154 265 -283 270 -285 5 -2 13 3 19 12 9 14 -26 57
-191 237 -111 121 -202 223 -202 226 0 3 8 6 18 6 35 0 138 59 178 101 204
217 266 620 218 1420 -11 188 -16 476 -17 997 l-2 732 368 0 367 0 0 -372 c0
-262 6 -462 20 -673 43 -651 10 -1044 -106 -1292 -72 -151 -156 -227 -302
-269 -24 -7 61 -115 213 -272 80 -83 183 -182 227 -219 45 -37 199 -194 342
-349 144 -154 265 -282 271 -284 5 -1 14 4 19 12 7 12 -35 64 -192 236 -111
121 -202 223 -202 226 0 3 8 6 18 6 35 0 138 59 178 101 204 217 266 620 218
1420 -11 188 -16 476 -17 997 l-2 732 679 0 c374 0 677 -2 675 -4 -2 -2 -44
-31 -94 -64 -49 -32 -117 -80 -150 -106 -99 -77 -272 -254 -351 -358 -68 -90
-73 -100 -63 -126 14 -35 140 -209 248 -342 96 -118 321 -350 338 -350 6 0 45
44 85 98 320 427 842 723 1398 791 136 17 415 10 436 -12 8 -7 -47 -132 -88
-201 -96 -164 -402 -415 -1008 -829 -441 -302 -777 -507 -1290 -787 -113 -61
-209 -115 -213 -120 -14 -12 25 -78 118 -199 94 -123 331 -395 414 -476 50
-49 52 -49 84 -36 183 76 293 97 456 88 179 -10 391 -66 584 -156 130 -60 470
-273 741 -464 113 -80 651 -523 1096 -902 1062 -905 1376 -1135 2030 -1483
426 -227 991 -410 1472 -479 180 -25 649 -25 803 0 248 41 507 119 763 228 64
28 284 135 487 239 498 253 658 322 890 379 330 81 675 74 913 -20 161 -64
190 -84 327 -225 72 -74 138 -134 148 -134 39 0 13 50 -112 217 -168 225 -295
375 -434 512 -207 203 -332 286 -537 354 -264 88 -510 99 -837 36 -247 -47
-433 -122 -874 -350 -449 -232 -550 -279 -786 -369 -716 -271 -1552 -216
-2437 162 -179 76 -502 238 -636 318 -228 136 -582 378 -790 539 -127 98 -517
425 -940 786 -719 615 -1013 848 -1349 1073 -86 57 -157 105 -159 107 -2 1 43
31 100 65 466 284 1192 801 1391 989 297 282 368 541 224 820 -83 161 -277
409 -526 671 l-113 120 651 0 c514 0 651 3 651 13 -1 48 -142 300 -274 487
-81 116 -204 267 -222 274 -9 3 -1004 6 -2211 6 l-2196 0 -41 33 c-50 41 -148
107 -158 107 -5 0 -8 -31 -8 -70 l0 -70 -606 0 -607 0 -41 33 c-50 41 -148
107 -158 107 -5 0 -8 -31 -8 -70 l0 -70 -615 0 c-699 0 -637 10 -584 -94 105
-206 317 -525 426 -638 l45 -48 369 0 369 0 -2 -185 -3 -185 -145 -64 c-80
-34 -194 -86 -255 -114 -175 -81 -323 -122 -441 -122 l-51 0 -7 73 c-21 218
-133 536 -311 885 -169 331 -238 420 -413 535 -98 65 -179 103 -288 133 -82
23 -304 27 -413 8z m1660 -2268 c127 -59 202 -77 344 -83 117 -5 165 1 343 44
l22 5 0 -188 c0 -262 -28 -508 -77 -684 -24 -86 -88 -210 -139 -268 -38 -44
-132 -112 -155 -112 -3 0 -12 32 -19 72 -25 141 -98 329 -219 563 -147 284
-278 489 -435 680 -36 44 -65 82 -63 85 1 3 20 37 42 77 l40 72 111 -109 c98
-98 121 -114 205 -154z"/>
<path d="M12265 11136 c-217 -55 -394 -296 -395 -536 0 -134 45 -370 100 -522
36 -98 124 -238 205 -327 30 -32 55 -63 55 -69 0 -6 -46 -39 -102 -74 -120
-73 -300 -207 -411 -306 -207 -183 -409 -467 -477 -668 -28 -84 -33 -118 -38
-221 -7 -178 19 -294 105 -468 95 -191 380 -509 693 -771 197 -165 370 -276
508 -324 l73 -26 49 -113 c91 -212 225 -411 430 -637 297 -327 638 -619 836
-715 285 -138 619 -118 877 52 42 26 67 50 67 61 0 65 -598 638 -666 638 -8 0
-40 -17 -72 -39 -159 -108 -279 -145 -477 -145 -80 -1 -163 4 -195 12 l-55 12
-53 116 c-94 204 -164 454 -182 648 -5 60 -9 110 -7 112 1 1 25 13 52 27 28
14 70 39 94 56 82 55 324 337 442 514 34 50 63 94 65 96 2 2 14 -9 26 -25 37
-50 340 -353 405 -406 34 -28 182 -180 329 -339 234 -253 270 -288 282 -275
18 18 30 2 -208 265 -96 105 -176 196 -178 201 -2 6 5 10 15 10 36 0 124 50
171 97 27 27 65 78 86 115 151 271 177 579 127 1518 -6 96 -10 478 -10 848
l-1 672 832 0 c457 0 829 -2 827 -4 -2 -2 -47 -20 -98 -40 -189 -73 -366 -192
-511 -342 -101 -105 -158 -186 -212 -300 -117 -250 -84 -587 92 -949 215 -443
646 -1014 877 -1161 142 -92 330 -128 458 -90 l47 15 112 -116 c61 -64 161
-162 221 -217 61 -56 229 -228 373 -383 145 -156 267 -283 271 -283 5 0 14 6
20 14 11 13 -21 49 -371 422 l-30 32 66 22 c118 39 210 148 276 327 86 238
106 550 76 1228 l-14 300 27 35 c46 62 174 190 251 253 41 33 109 76 150 96
66 31 86 36 171 39 111 5 204 -11 214 -36 4 -9 9 -87 12 -172 4 -126 1 -182
-16 -297 -53 -356 -148 -609 -326 -869 -105 -153 -185 -235 -283 -289 -82 -46
-81 -42 -24 -145 119 -218 418 -624 481 -653 33 -16 175 76 257 165 62 68 193
264 246 367 104 204 189 536 207 805 20 292 -20 516 -134 761 -122 264 -476
759 -661 925 -167 150 -357 231 -509 217 l-65 -6 0 128 c0 71 -3 143 -6 160
l-7 32 955 -7 c751 -6 956 -5 962 5 12 19 -72 184 -173 341 -101 157 -294 415
-321 430 -11 6 -970 12 -2614 17 l-2596 6 -38 32 c-20 17 -64 48 -97 68 l-60
37 -3 -70 -3 -70 -614 0 c-612 0 -615 0 -615 -20 0 -27 36 -96 128 -250 41
-69 77 -129 80 -135 3 -5 -55 49 -129 120 -159 155 -250 233 -381 331 -140
104 -240 137 -343 110z m520 -827 c-20 -117 -73 -222 -162 -317 l-62 -67 -1
37 c0 66 28 185 60 249 31 61 163 209 175 197 4 -3 -1 -48 -10 -99z m999 -109
l366 0 0 -185 0 -186 -30 16 c-49 25 -68 18 -148 -53 -128 -115 -228 -189
-304 -226 -75 -37 -172 -66 -218 -66 l-26 0 25 73 c23 65 26 87 26 217 -1 155
-17 241 -70 371 -21 54 -22 58 -5 49 11 -6 160 -10 384 -10z m3676 -247 c0
-130 -4 -233 -8 -227 -5 5 -50 63 -100 129 -116 154 -221 261 -297 302 l-60
32 233 1 232 0 0 -237z m-37 -499 l37 -7 0 -104 0 -104 -41 -60 c-22 -33 -119
-198 -216 -367 -96 -169 -196 -336 -221 -371 -118 -166 -229 -268 -369 -338
-117 -58 -254 -57 -375 3 -43 22 -47 27 -57 76 -53 255 -41 420 45 593 74 151
245 341 410 455 139 96 329 177 499 214 73 15 223 20 288 10z m-3778 -264
c263 -152 322 -177 496 -205 l37 -6 7 -147 c4 -81 5 -211 1 -290 -18 -393 -82
-649 -198 -800 -37 -48 -100 -102 -120 -102 -4 0 11 37 32 83 49 105 63 163
58 235 -3 50 -11 67 -53 127 -92 129 -483 497 -620 582 -53 34 -62 36 -139 35
-249 -2 -450 -176 -575 -496 -72 -185 -110 -370 -120 -586 l-6 -145 -65 -17
c-84 -22 -249 -23 -360 -2 -48 8 -91 19 -98 23 -19 11 -42 145 -42 241 0 196
52 348 194 560 73 111 151 203 267 316 140 136 227 203 469 362 243 159 370
256 464 351 l69 70 71 -48 c39 -27 143 -90 231 -141z"/>
</g>
</svg>
